<?xml version="1.0" encoding="utf-8"?>
<!-- Generator: Adobe Illustrator 21.0.2, SVG Export Plug-In . SVG Version: 6.00 Build 0)  -->
<svg version="1.1" id="Main" xmlns="http://www.w3.org/2000/svg" xmlns:xlink="http://www.w3.org/1999/xlink" x="0px" y="0px"
	 viewBox="0 0 595.3 841.9" style="enable-background:new 0 0 595.3 841.9;" xml:space="preserve">
<style type="text/css">
	.st0{fill:#35483D;}
	.st1{font-family:'Impact';}
	.st2{font-size:12.2621px;}
	.st3{fill:#7C9486;}
	.st4{fill:#FFFFFF;}
	.st5{font-family:'TwCenMT-CondensedExtraBold';}
	.st6{font-size:15.7655px;}
	.st7{display:none;}
	.st8{display:inline;fill:#FFFFFF;stroke:#7C9385;stroke-width:3.3187;stroke-miterlimit:10;}
	.st9{display:inline;}
	.st10{fill:#7C9385;}
	.st11{fill:none;stroke:#FFFFFF;stroke-width:2;stroke-miterlimit:10;}
	.st12{display:inline;fill:none;}
	.st13{font-family:'Calibri';}
	.st14{font-size:11px;}
	.st15{font-size:9.3425px;}
</style>
<g id="Otsikko">
	<text transform="matrix(1.0668 0 0 1 99.8019 45.6741)" class="st0 st1 st2">See from the graphic below, how the new way of buying timber works.</text>
</g>
<path class="st3" d="M497.5,126.6H78.7c-4,0-7.3-3.3-7.3-7.3v-13.9c0-4,3.3-7.3,7.3-7.3h418.8c4,0,7.3,3.3,7.3,7.3v13.9
	C504.8,123.3,501.5,126.6,497.5,126.6z"/>
<path class="st3" d="M152.1,97.1c0,0,14.3-4.5,21.6-16s8.6,0,8.6,0l-15.1,18.7l-20.2,2.8L152.1,97.1z"/>
<path class="st3" d="M372.9,97.1c0,0,14.3-4.5,21.6-16c7.3-11.4,8.6,0,8.6,0L388,99.8l-20.2,2.8L372.9,97.1z"/>
<path class="st3" d="M335.9,127.7c0,0,14.3,4.5,21.6,16c7.3,11.4,8.6,0,8.6,0L351,125l-20.2-2.8L335.9,127.7z"/>
<path class="st3" d="M211.4,127.7c0,0,14.3,4.5,21.6,16c7.3,11.4,8.6,0,8.6,0L226.5,125l-20.2-2.8L211.4,127.7z"/>
<path class="st3" d="M86.8,127.7c0,0,14.3,4.5,21.6,16c7.3,11.4,8.6,0,8.6,0L101.9,125l-20.2-2.8L86.8,127.7z"/>
<path class="st3" d="M460.4,127.7c0,0,14.3,4.5,21.6,16c7.3,11.4,8.6,0,8.6,0L475.5,125l-20.2-2.8L460.4,127.7z"/>
<g id="Lehti1">
	<g id="Lehti">
		<path class="st3" d="M131.1,225.1H67.7c-6.4,0-11.7-5.3-11.7-11.7V152c0-6.4,5.3-11.7,11.7-11.7h63.4c6.4,0,11.7,5.3,11.7,11.7
			v61.4C142.8,219.8,137.5,225.1,131.1,225.1z"/>
		<text transform="matrix(1.0668 0 0 1 80.3409 156.1163)"><tspan x="0" y="0" class="st4 st1 st2">Search</tspan><tspan x="0.7" y="14.7" class="st4 st1 st2">stands</tspan></text>
	</g>
	<path class="st4" d="M116.6,210.4l-7.4-7.4c1.8-2.6,2.7-5.5,2.7-8.6c0-2.1-0.4-4-1.2-5.9c-0.8-1.9-1.9-3.5-3.2-4.9
		c-1.4-1.4-3-2.4-4.9-3.2c-1.9-0.8-3.9-1.2-5.9-1.2c-2.1,0-4,0.4-5.9,1.2c-1.9,0.8-3.5,1.9-4.9,3.2c-1.4,1.4-2.4,3-3.2,4.9
		c-0.8,1.9-1.2,3.9-1.2,5.9c0,2.1,0.4,4,1.2,5.9c0.8,1.9,1.9,3.5,3.2,4.9c1.4,1.4,3,2.4,4.9,3.2c1.9,0.8,3.9,1.2,5.9,1.2
		c3.2,0,6-0.9,8.6-2.7l7.4,7.4c0.5,0.6,1.2,0.8,1.9,0.8c0.8,0,1.4-0.3,2-0.8c0.5-0.5,0.8-1.2,0.8-2
		C117.4,211.6,117.1,211,116.6,210.4z M103.4,201.2c-1.9,1.9-4.2,2.8-6.8,2.8c-2.7,0-4.9-0.9-6.8-2.8c-1.9-1.9-2.8-4.2-2.8-6.8
		c0-2.7,0.9-5,2.8-6.8c1.9-1.9,4.2-2.8,6.8-2.8c2.7,0,4.9,1,6.8,2.8c1.9,1.9,2.8,4.2,2.8,6.8C106.3,197,105.3,199.3,103.4,201.2z"/>
</g>
<g id="_x34_">
	<ellipse class="st4" cx="454.3" cy="112.7" rx="9.3" ry="8.7"/>
	<text transform="matrix(1.0668 0 0 1 449.6636 117.9318)" class="st3 st5 st6">4</text>
</g>
<g id="_x32_">
	<ellipse class="st4" cx="217.7" cy="112.7" rx="9.3" ry="8.7"/>
	<text transform="matrix(1.0668 0 0 1 213.796 117.9318)" class="st3 st5 st6">2</text>
</g>
<g id="Lehti2">
	<g id="Lehti_1_">
		<path class="st3" d="M261.6,225.1h-63.4c-6.4,0-11.7-5.3-11.7-11.7V152c0-6.4,5.3-11.7,11.7-11.7h63.4c6.4,0,11.7,5.3,11.7,11.7
			v61.4C273.3,219.8,268,225.1,261.6,225.1z"/>
		<text transform="matrix(1.0668 0 0 1 206.6031 156.1163)"><tspan x="0" y="0" class="st4 st1 st2">Examine </tspan><tspan x="4.3" y="14.7" class="st4 st1 st2">results</tspan></text>
	</g>
	<g id="_x33_43._Playlist">
		<g>
			<path class="st4" d="M217.8,185.7l-4.4-2.7c-0.9-0.6-1.6-0.2-1.6,0.9v5.7c0,1.1,0.7,1.5,1.6,0.9l4.4-2.7
				C218.7,187.1,218.7,186.2,217.8,185.7z M246.1,183.8h-22.8c-1.1,0-1.9,0.9-1.9,1.9v1.9c0,1.1,0.9,1.9,1.9,1.9h22.8
				c1.1,0,1.9-0.9,1.9-1.9v-1.9C248,184.7,247.1,183.8,246.1,183.8z M213.4,201.8l4.4-2.7c0.9-0.6,0.9-1.4-0.1-1.9l-4.2-2.1
				c-0.9-0.5-1.7,0-1.7,1v4.8C211.8,202,212.5,202.4,213.4,201.8z M246.1,195.2h-22.8c-1.1,0-1.9,0.9-1.9,1.9v1.9
				c0,1.1,0.9,1.9,1.9,1.9h22.8c1.1,0,1.9-0.9,1.9-1.9v-1.9C248,196.1,247.1,195.2,246.1,195.2z M217.8,208.5l-4.4-2.7
				c-0.9-0.6-1.6-0.2-1.6,0.9v5.7c0,1.1,0.7,1.5,1.6,0.9l4.4-2.7C218.7,210,218.7,209.1,217.8,208.5z M246.1,206.7h-22.8
				c-1.1,0-1.9,0.9-1.9,1.9v1.9c0,1.1,0.9,1.9,1.9,1.9h22.8c1.1,0,1.9-0.9,1.9-1.9v-1.9C248,207.5,247.1,206.7,246.1,206.7z"/>
		</g>
	</g>
</g>
<g id="_x31_">
	<ellipse class="st4" cx="99.4" cy="112.7" rx="9.3" ry="8.7"/>
	<text transform="matrix(1.0668 0 0 1 95.1168 117.9318)" class="st3 st5 st6">1</text>
</g>
<g id="_x33_">
	<ellipse class="st4" cx="336" cy="112.7" rx="9.3" ry="8.7"/>
	<text transform="matrix(1.0668 0 0 1 332.0953 117.9318)" class="st3 st5 st6">3</text>
</g>
<g id="Lehti3">
	<g id="Lehti_2_">
		<path class="st3" d="M392.1,225.1h-63.4c-6.4,0-11.7-5.3-11.7-11.7V152c0-6.4,5.3-11.7,11.7-11.7h63.4c6.4,0,11.7,5.3,11.7,11.7
			v61.4C403.8,219.8,398.5,225.1,392.1,225.1z"/>
		<text transform="matrix(1.0668 0 0 1 334.8336 156.1163)"><tspan x="0" y="0" class="st4 st1 st2">Purchase</tspan><tspan x="-5.9" y="14.7" class="st4 st1 st2">information</tspan></text>
	</g>
	<g>
		<circle class="st4" cx="356" cy="213.6" r="3.6"/>
		<circle class="st4" cx="371.6" cy="213.6" r="3.6"/>
		<path class="st4" d="M380.7,190.4c-4.6,0-22.1,0-22.1,0s-1.3,0.3-1.3,1.7c0,1.4,1.3,1.9,1.3,1.9h19.8l-1.1,3.8
			c-5.4,0-19.5,0-19.5,0s-1.2,0.3-1.2,1.6c0,1.3,1.2,1.7,1.2,1.7h18.4h0l-1,3.5h-20.1l-1.3-10.6l-0.4-3.6c0,0-0.4-3.3-0.6-4.7
			c-0.2-1.4-3.7-3.1-11-6.6c-1.7-0.7-3.2,2.4,0,4.1l5.8,2.7c0,0,1.4,0.8,1.5,1.8c0.1,1.1,2.5,18.6,2.5,18.6s0.1,2.4,2.3,2.4
			c2.2,0,20.3,0,22.2,0c1.9,0,2.2-1.9,2.2-1.9l4.4-13.1C382.7,193.8,384,190.4,380.7,190.4z"/>
	</g>
</g>
<g id="Lehti4">
	<g id="Lehti_3_">
		<path class="st3" d="M522.6,225.1h-63.4c-6.4,0-11.7-5.3-11.7-11.7V152c0-6.4,5.3-11.7,11.7-11.7h63.4c6.4,0,11.7,5.3,11.7,11.7
			v61.4C534.3,219.8,529.1,225.1,522.6,225.1z"/>
		<text transform="matrix(1.0668 0 0 1 468.8463 156.1163)"><tspan x="0" y="0" class="st4 st1 st2">Contact </tspan><tspan x="-6.3" y="14.7" class="st4 st1 st2">landowner</tspan></text>
	</g>
	<path class="st4" d="M506.8,206.4c0.1,0.5-0.1,1-0.5,1.4l-4.5,4.5c-0.2,0.2-0.5,0.4-0.8,0.6c-0.3,0.2-0.6,0.3-1,0.3
		c0,0-0.1,0-0.2,0c-0.1,0-0.3,0-0.4,0c-0.4,0-1.1-0.1-2.1-0.2c-1-0.1-2.1-0.5-3.5-1.1c-1.4-0.6-3-1.4-4.7-2.6
		c-1.8-1.1-3.6-2.7-5.6-4.7c-1.6-1.6-2.9-3-3.9-4.5c-1-1.4-1.9-2.7-2.5-3.9c-0.6-1.2-1.1-2.3-1.4-3.3c-0.3-1-0.5-1.8-0.6-2.5
		c-0.1-0.7-0.2-1.3-0.1-1.7c0-0.4,0-0.6,0-0.7c0-0.3,0.1-0.6,0.3-1c0.2-0.3,0.3-0.6,0.6-0.8l4.5-4.5c0.3-0.3,0.7-0.5,1.1-0.5
		c0.3,0,0.6,0.1,0.8,0.3c0.2,0.2,0.4,0.4,0.6,0.6l3.6,6.9c0.2,0.4,0.3,0.8,0.2,1.2c-0.1,0.4-0.3,0.8-0.6,1.1l-1.7,1.7
		c0,0-0.1,0.1-0.1,0.2c0,0.1-0.1,0.2-0.1,0.3c0.1,0.5,0.3,1,0.6,1.6c0.3,0.5,0.7,1.2,1.2,2c0.6,0.8,1.4,1.7,2.4,2.7
		c1,1,1.9,1.8,2.7,2.4c0.8,0.6,1.4,1,2,1.3c0.5,0.3,0.9,0.4,1.2,0.5l0.4,0.1c0,0,0.1,0,0.2-0.1c0.1,0,0.2-0.1,0.2-0.1l1.9-2
		c0.4-0.4,0.9-0.5,1.4-0.5c0.4,0,0.7,0.1,0.9,0.2h0l6.5,3.8C506.5,205.5,506.7,205.9,506.8,206.4z"/>
</g>
<g id="Dialog4" class="st7">
	<path class="st8" d="M565.5,295.1H442.1c-4.4,0-7.9-3.6-7.9-7.9V141.9c0-4.4,3.6-7.9,7.9-7.9h123.4c4.4,0,7.9,3.6,7.9,7.9v145.2
		C573.4,291.5,569.8,295.1,565.5,295.1z"/>
	<g id="Close4" class="st9">
		<path class="st10" d="M555.9,289L555.9,289c-4.7,0-8.6-3.9-8.6-8.6l0,0c0-4.7,3.9-8.6,8.6-8.6h0c4.7,0,8.6,3.9,8.6,8.6l0,0
			C564.5,285.1,560.7,289,555.9,289z"/>
		<line class="st11" x1="552.2" y1="284.2" x2="559.7" y2="276.7"/>
		<line class="st11" x1="559.7" y1="284.2" x2="552.2" y2="276.7"/>
	</g>
	<polygon class="st12" points="563.3,290.9 445.2,290.9 444.2,143.5 562.3,143.5 	"/>
	<text transform="matrix(0.9627 0 0 1 444.2974 150.9097)" class="st9"><tspan x="0" y="0" class="st13 st14">You are able to visit the </tspan><tspan x="0.1" y="13.2" class="st13 st14">area with the help of the </tspan><tspan x="0.2" y="26.4" class="st13 st14">maps, and on the basis of </tspan><tspan x="0.3" y="39.6" class="st13 st14">the property identifier you </tspan><tspan x="0.4" y="52.8" class="st13 st14">can find out the who the </tspan><tspan x="0.4" y="66" class="st13 st14">landowner is, and inquire </tspan><tspan x="0.5" y="79.2" class="st13 st14">his willingness to timber </tspan><tspan x="0.6" y="92.4" class="st13 st14">trade.</tspan></text>
</g>
<g id="Dialog3" class="st7">
	<path class="st8" d="M425.8,295.1H302.4c-4.4,0-7.9-3.6-7.9-7.9V141.9c0-4.4,3.6-7.9,7.9-7.9h123.4c4.4,0,7.9,3.6,7.9,7.9v145.2
		C433.7,291.5,430.1,295.1,425.8,295.1z"/>
	<g id="Next3" class="st9">
		<path class="st10" d="M392,288.9h-37.2c-4.6,0-8.4-3.8-8.4-8.4v-0.2c0-4.6,3.8-8.4,8.4-8.4H392c4.6,0,8.4,3.8,8.4,8.4v0.2
			C400.3,285.1,396.6,288.9,392,288.9z"/>
		<text transform="matrix(1.0668 0 0 1 364.2523 282.8529)" class="st4 st13 st15">next</text>
	</g>
	<g id="Close3" class="st9">
		<path class="st10" d="M416.6,289L416.6,289c-4.7,0-8.6-3.9-8.6-8.6l0,0c0-4.7,3.9-8.6,8.6-8.6l0,0c4.7,0,8.6,3.9,8.6,8.6l0,0
			C425.2,285.1,421.3,289,416.6,289z"/>
		<line class="st11" x1="412.9" y1="284.2" x2="420.4" y2="276.7"/>
		<line class="st11" x1="420.4" y1="284.2" x2="412.9" y2="276.7"/>
	</g>
	<polygon class="st12" points="423.6,290.9 305.5,290.9 304.5,143.5 422.6,143.5 	"/>
	<text transform="matrix(0.9627 0 0 1 304.5803 150.9097)" class="st9"><tspan x="0" y="0" class="st13 st14">You can buy the accurate </tspan><tspan x="0.1" y="13.2" class="st13 st14">location information and </tspan><tspan x="0.2" y="26.4" class="st13 st14">the property identifier of </tspan><tspan x="0.3" y="39.6" class="st13 st14">the stands you wish for the </tspan><tspan x="0.4" y="52.8" class="st13 st14">price of 14,90 € / stand. </tspan><tspan x="0.4" y="66" class="st13 st14">You get the information in </tspan><tspan x="0.5" y="79.2" class="st13 st14">your e-mail and on your </tspan><tspan x="0.6" y="92.4" class="st13 st14">own site in ArboTimber.</tspan></text>
</g>
<g id="Dialog2" class="st7">
	<path class="st8" d="M286.3,295.1H162.9c-4.4,0-7.9-3.6-7.9-7.9V141.9c0-4.4,3.6-7.9,7.9-7.9h123.4c4.4,0,7.9,3.6,7.9,7.9v145.2
		C294.2,291.5,290.7,295.1,286.3,295.1z"/>
	<g id="Next2" class="st9">
		<path class="st10" d="M252.5,288.9h-37.2c-4.6,0-8.4-3.8-8.4-8.4v-0.2c0-4.6,3.8-8.4,8.4-8.4h37.2c4.6,0,8.4,3.8,8.4,8.4v0.2
			C260.8,285.1,257.1,288.9,252.5,288.9z"/>
		<text transform="matrix(1.0668 0 0 1 224.7481 282.8529)" class="st4 st13 st15">next</text>
	</g>
	<g id="Close2" class="st9">
		<path class="st10" d="M277.3,289L277.3,289c-4.7,0-8.6-3.9-8.6-8.6l0,0c0-4.7,3.9-8.6,8.6-8.6h0c4.7,0,8.6,3.9,8.6,8.6l0,0
			C285.9,285.1,282,289,277.3,289z"/>
		<line class="st11" x1="273.5" y1="284.2" x2="281" y2="276.7"/>
		<line class="st11" x1="281" y1="284.2" x2="273.5" y2="276.7"/>
	</g>
	<polygon class="st12" points="284.1,290.9 166,290.9 165.1,143.5 283.2,143.5 	"/>
	<text transform="matrix(0.9627 0 0 1 165.1243 150.9097)" class="st9"><tspan x="0" y="0" class="st13 st14">You get detailed </tspan><tspan x="0.1" y="13.2" class="st13 st14">information about the </tspan><tspan x="0.2" y="26.4" class="st13 st14">stands that match your </tspan><tspan x="0.3" y="39.6" class="st13 st14">criteria in the area. </tspan><tspan x="0.4" y="52.8" class="st13 st14">You can view the </tspan><tspan x="0.4" y="66" class="st13 st14">information with a table </tspan><tspan x="0.5" y="79.2" class="st13 st14">tool, and you get to see </tspan><tspan x="0.6" y="92.4" class="st13 st14">the approximate location </tspan><tspan x="0.7" y="105.6" class="st13 st14">of the stands on a map.</tspan></text>
</g>
<g id="Dialog1" class="st7">
	<path class="st8" d="M146.8,295.1H23.4c-4.4,0-7.9-3.6-7.9-7.9V141.9c0-4.4,3.6-7.9,7.9-7.9h123.4c4.4,0,7.9,3.6,7.9,7.9v145.2
		C154.8,291.5,151.2,295.1,146.8,295.1z"/>
	<g id="Next1" class="st9">
		<path class="st10" d="M112.3,288.9H75.1c-4.6,0-8.4-3.8-8.4-8.4v-0.2c0-4.6,3.8-8.4,8.4-8.4h37.2c4.6,0,8.4,3.8,8.4,8.4v0.2
			C120.6,285.1,116.9,288.9,112.3,288.9z"/>
		<text transform="matrix(1.0668 0 0 1 84.5759 282.8529)" class="st4 st13 st15">next</text>
	</g>
	<polygon class="st12" points="144.2,290.9 26.1,290.9 25.1,143.5 143.2,143.5 	"/>
	<text transform="matrix(0.9627 0 0 1 25.1904 150.9097)" class="st9"><tspan x="0" y="0" class="st13 st14">Select the area on the map </tspan><tspan x="0.1" y="13.2" class="st13 st14">from where you are </tspan><tspan x="0.2" y="26.4" class="st13 st14">looking for wood and </tspan><tspan x="0.3" y="39.6" class="st13 st14">define the wood type you </tspan><tspan x="0.4" y="52.8" class="st13 st14">are looking for.</tspan><tspan x="0.4" y="66" class="st13 st14">You can use up to 10</tspan><tspan x="0.5" y="79.2" class="st13 st14">search parameters, such as </tspan><tspan x="0.6" y="92.4" class="st13 st14">the diameter of the tree. </tspan></text>
	<g id="Close1" class="st9">
		<path class="st10" d="M137.9,289L137.9,289c-4.7,0-8.6-3.9-8.6-8.6l0,0c0-4.7,3.9-8.6,8.6-8.6h0c4.7,0,8.6,3.9,8.6,8.6l0,0
			C146.5,285.1,142.7,289,137.9,289z"/>
		<line class="st11" x1="134.2" y1="284.2" x2="141.7" y2="276.7"/>
		<line class="st11" x1="141.7" y1="284.2" x2="134.2" y2="276.7"/>
	</g>
</g>
</svg>
